<svg id="Layer_1" data-name="Layer 1" xmlns="http://www.w3.org/2000/svg" width="1600.49" height="145.35" viewBox="0 0 1600.49 145.35">
  <defs>
    <style>
      .cls-1, .cls-9 {
        fill: #48a2b7;
      }

      .cls-12, .cls-2, .cls-3, .cls-4, .cls-5, .cls-6 {
        fill: none;
      }

      .cls-2 {
        stroke: #000;
      }

      .cls-12, .cls-13, .cls-2, .cls-3, .cls-4, .cls-5, .cls-6, .cls-7, .cls-8, .cls-9 {
        stroke-miterlimit: 10;
      }

      .cls-2, .cls-3, .cls-4, .cls-5, .cls-6 {
        stroke-width: 13px;
      }

      .cls-3 {
        stroke: #23ad3a;
      }

      .cls-4 {
        stroke: #1784c1;
      }

      .cls-5 {
        stroke: #e87b0f;
      }

      .cls-6 {
        stroke: #ce4a90;
      }

      .cls-7 {
        fill: #9ed4d8;
        stroke: #9ed4d8;
      }

      .cls-10, .cls-13, .cls-8 {
        fill: #fffa50;
      }

      .cls-8 {
        stroke: #fffa50;
      }

      .cls-9 {
        stroke: #48a2b7;
      }

      .cls-11 {
        fill: #ffcd52;
      }

      .cls-12, .cls-13 {
        stroke: #ffcd52;
      }

      .cls-14 {
        fill: #322e40;
      }

      .cls-15 {
        fill: #b4a5e6;
      }

      .cls-16 {
        fill: #968abf;
      }

      .cls-17 {
        fill: #645c80;
      }

      .cls-18 {
        fill: #c8b7ff;
      }

      .cls-19 {
        fill: #fff;
      }
    </style>
  </defs>
  <rect class="cls-1" y="0.51" width="1600.49" height="144.85"/>
  <g>
    <path id="color1" class="cls-2" d="M370.21,119c-5.79-29,10.59-56.33,36.52-61s51.72,15.09,57.51,44.05"/>
    <path id="color2" class="cls-3" d="M352.1,122.27c-8-40.12,14.67-78,50.58-84.5s71.65,20.9,79.67,61"/>
    <path id="color3" class="cls-4" d="M361.16,120.64c-6.91-34.54,12.63-67.18,43.54-72.75s61.69,18,68.59,52.53"/>
    <path id="color4" class="cls-5" d="M370.21,119c-5.79-29,10.59-56.33,36.52-61s51.72,15.09,57.51,44.05"/>
    <path id="color5" class="cls-6" d="M379.27,117.37C374.59,94,387.78,71.9,408.75,68.12s41.75,12.14,46.43,35.56"/>
    <g id="clouds">
      <ellipse class="cls-7" cx="370" cy="117.92" rx="29.11" ry="13.02" transform="translate(-14.81 65.72) rotate(-9.95)"/>
      <ellipse class="cls-7" cx="368.14" cy="108.64" rx="13.49" ry="13.88" transform="translate(158.07 429.89) rotate(-73.26)"/>
      <ellipse class="cls-7" cx="380.57" cy="111.97" rx="12.48" ry="9.22" transform="translate(169.49 447.85) rotate(-74.25)"/>
      <ellipse class="cls-7" cx="354.66" cy="118.03" rx="9.1" ry="12.64" transform="translate(-1.35 231.92) rotate(-36.15)"/>
      <ellipse class="cls-7" cx="362.33" cy="122.54" rx="12.48" ry="9.22" transform="matrix(0.27, -0.96, 0.96, 0.27, 146.03, 437.99)"/>
      <ellipse class="cls-7" cx="381.2" cy="120.14" rx="9" ry="12.78" transform="translate(39.26 327.09) rotate(-48.68)"/>
      <ellipse class="cls-7" cx="371.01" cy="118.68" rx="13.49" ry="13.88" transform="translate(150.5 439.79) rotate(-73.26)"/>
    </g>
    <g id="clouds-2" data-name="clouds">
      <ellipse class="cls-7" cx="463.97" cy="100.69" rx="29.11" ry="13.02" transform="translate(-10.42 81.7) rotate(-9.95)"/>
      <ellipse class="cls-7" cx="462.11" cy="91.4" rx="13.49" ry="13.88" transform="matrix(0.29, -0.96, 0.96, 0.29, 241.48, 507.6)"/>
      <ellipse class="cls-7" cx="474.54" cy="94.73" rx="12.48" ry="9.22" transform="translate(254.54 525.74) rotate(-74.25)"/>
      <ellipse class="cls-7" cx="448.63" cy="100.8" rx="9.1" ry="12.64" transform="translate(26.9 284.03) rotate(-36.15)"/>
      <ellipse class="cls-7" cx="456.3" cy="105.3" rx="12.48" ry="9.22" transform="translate(231.08 515.88) rotate(-74.25)"/>
      <ellipse class="cls-7" cx="475.17" cy="102.91" rx="9" ry="12.78" transform="translate(84.12 391.8) rotate(-48.68)"/>
      <ellipse class="cls-7" cx="464.98" cy="101.45" rx="13.49" ry="13.88" transform="translate(233.91 517.51) rotate(-73.26)"/>
    </g>
  </g>
  <ellipse id="moonCircle" class="cls-8" cx="1376.69" cy="70.37" rx="61.87" ry="58.76"/>
  <ellipse id="moonCut" class="cls-9" cx="1397.72" cy="54.99" rx="57.36" ry="54.48"/>
  <g id="Stars">
    <polygon class="cls-10" points="1377.23 11.14 1381.25 15.81 1387.58 15.32 1384.14 20.39 1386.59 25.96 1380.45 24.43 1375.63 28.36 1375.27 22.34 1369.84 19.2 1375.76 17.01 1377.23 11.14"/>
    <polygon class="cls-10" points="1368.02 28.8 1372.1 33.44 1378.42 32.88 1375.04 37.99 1377.56 43.53 1371.4 42.06 1366.63 46.04 1366.2 40.02 1360.73 36.94 1366.63 34.69 1368.02 28.8"/>
    <polygon class="cls-10" points="1391.14 26.14 1395.45 30.57 1401.74 29.71 1398.63 34.98 1401.43 40.4 1395.2 39.21 1390.64 43.42 1389.9 37.42 1384.28 34.61 1390.05 32.08 1391.14 26.14"/>
  </g>
  <g id="sunrays">
    <path class="cls-11" d="M264.17,77.2c-18.37,5.88-19.63,11.48-5,23.37-19.2-1.69-22.48,2.9-13.55,19.09-17.05-8.48-21.88-5.36-20.1,12.87-12.52-13.92-18.42-12.73-24.61,4.72-6.19-17.45-12.09-18.64-24.61-4.72,1.78-18.23-3.05-21.35-20.1-12.87,8.93-16.19,5.65-20.78-13.55-19.09,14.66-11.89,13.4-17.49-5-23.37,18.37-5.89,19.63-11.49,5-23.38,19.2,1.7,22.48-2.89,13.55-19.09,17.05,8.49,21.88,5.37,20.1-12.87,12.52,13.92,18.42,12.73,24.61-4.72,6.19,17.45,12.09,18.64,24.61,4.72-1.78,18.24,3,21.36,20.1,12.87-8.93,16.2-5.65,20.79,13.55,19.09C244.54,65.71,245.8,71.31,264.17,77.2Z"/>
    <path class="cls-12" d="M264.17,77.2c-18.37,5.88-19.63,11.48-5,23.37-19.2-1.69-22.48,2.9-13.55,19.09-17.05-8.48-21.88-5.36-20.1,12.87-12.52-13.92-18.42-12.73-24.61,4.72-6.19-17.45-12.09-18.64-24.61-4.72,1.78-18.23-3.05-21.35-20.1-12.87,8.93-16.19,5.65-20.78-13.55-19.09,14.66-11.89,13.4-17.49-5-23.37,18.37-5.89,19.63-11.49,5-23.38,19.2,1.7,22.48-2.89,13.55-19.09,17.05,8.49,21.88,5.37,20.1-12.87,12.52,13.92,18.42,12.73,24.61-4.72,6.19,17.45,12.09,18.64,24.61,4.72-1.78,18.24,3,21.36,20.1,12.87-8.93,16.2-5.65,20.79,13.55,19.09C244.54,65.71,245.8,71.31,264.17,77.2Z"/>
  </g>
  <ellipse id="suncircle" class="cls-13" cx="201.05" cy="76.7" rx="44.46" ry="42.23"/>
  <g id="fins">
    <ellipse class="cls-14" cx="1160.52" cy="61.68" rx="15.69" ry="13.5"/>
    <ellipse class="cls-14" cx="1179.87" cy="61.85" rx="12.64" ry="13.33"/>
    <ellipse class="cls-14" cx="1159.08" cy="106.03" rx="15.69" ry="13.5"/>
    <ellipse class="cls-14" cx="1178.43" cy="106.2" rx="12.64" ry="13.33"/>
  </g>
  <path id="front" class="cls-15" d="M1231,87.61a116,116,0,0,1-26,15.92,78.85,78.85,0,0,1-31.43,7.06c-3.62,0-7.15-.14-10.6-.4-22.94-1.71-41.58-8.94-48.51-18.42a14.18,14.18,0,0,1-2.77-6.61h0a10,10,0,0,1-.12-1.55,11.81,11.81,0,0,1,.56-3.63,14.36,14.36,0,0,1,.93-2.28c.08-.14.14-.29.23-.43a23.81,23.81,0,0,1,7.19-7.61C1129.64,63.08,1145,58.34,1163,57c3.45-.26,7-.4,10.6-.4A78.68,78.68,0,0,1,1205,63.67a115.26,115.26,0,0,1,26,15.92A5.11,5.11,0,0,1,1231,87.61Z"/>
  <path id="back" class="cls-16" d="M1170.83,83.6a49.17,49.17,0,0,1-7.82,26.59c-22.94-1.71-41.58-8.94-48.51-18.42a38.72,38.72,0,0,1-10.3,5.4,26.88,26.88,0,0,1-3.34.88c-13.93,2.78-27.66-5.94-27.66-5.94s8.85-13.23,22.79-16c.64-.12,1.26-.23,1.89-.29a21.61,21.61,0,0,1-1.88-1.16c-11.58-7.85-15.62-24.37-14.12-23.36s13.88-2.17,24.88,3.36a27.34,27.34,0,0,1,3,1.74,32.38,32.38,0,0,1,10.79,13.28C1129.64,63.08,1145,58.34,1163,57A49.13,49.13,0,0,1,1170.83,83.6Z"/>
  <path id="tail" class="cls-17" d="M1113.45,74.49c0,.94,0,1.87-.12,2.77l0,.49c-.06.77-.17,1.54-.3,2.28a32.74,32.74,0,0,1-1.26,5.12,29.54,29.54,0,0,1-7.53,12,26.88,26.88,0,0,1-3.34.88c-13.93,2.78-27.66-5.94-27.66-5.94s8.85-13.23,22.79-16c.64-.12,1.26-.23,1.89-.29a21.61,21.61,0,0,1-1.88-1.16c-11.58-7.85-15.62-24.37-14.12-23.36s13.88-2.17,24.88,3.36A31.92,31.92,0,0,1,1113.45,74.49Z"/>
  <path id="nose" class="cls-18" d="M1231,87.61a116,116,0,0,1-26,15.92,32.88,32.88,0,0,1,0-39.86,115.26,115.26,0,0,1,26,15.92A5.11,5.11,0,0,1,1231,87.61Z"/>
  <ellipse id="eye" class="cls-14" cx="1221.43" cy="80.32" rx="3.54" ry="3.36"/>
  <g id="NatureIcons">
    <path class="cls-19" d="M541,53.06l.35,31.71c0,8.91,2.18,12.75,7.16,19.47v.18H530.74v-.18c5.07-6.72,7.08-10.39,7.08-19.56V57.52c0-8.21-1.93-11.36-6.9-16.86v-.18H551l32.23,40.18-.08-20.35c-.09-9.17-2-12.84-7-19.65v-.18h17.38v.18c-4.81,6.72-6.9,10.57-6.9,19.48v44.19l-4,.35Z"/>
    <path class="cls-19" d="M596.94,96.38c0-10,12.57-14.67,23-16.85V75.6c0-5.33-2.28-7.78-8.65-7.78a29.83,29.83,0,0,0-11.79,2.54l-.7-1A27.6,27.6,0,0,1,620,59.09c9.7,0,14.15,5,14.15,12.4V93.24c0,2.44,1,4.37,3.85,4.37a6.16,6.16,0,0,0,3.93-1.49l.61.61c-1.31,3.15-4.54,8.91-12.41,8.91-5.67,0-9-3-9.87-7.07a15.92,15.92,0,0,1-13,7.16C601.48,105.73,596.94,102.59,596.94,96.38Zm18.42,1.23a8.49,8.49,0,0,0,4.55-1.31V82.15c-6.73,2-10.57,5.5-10.57,9.78C609.34,95.25,611.52,97.61,615.36,97.61Z"/>
    <path class="cls-19" d="M661.91,105.73c-7.16,0-12.4-3.5-12.4-12.49V63.72h-5.07V61.88L662.7,50h1V60.49H675v3.23H663.66V92.28c0,5,2.7,6.64,6.28,6.64a9.68,9.68,0,0,0,5.59-1.58l.7.61C674.14,101.8,669.33,105.73,661.91,105.73Z"/>
    <path class="cls-19" d="M683.56,91.41v-20c0-5.67-1.39-8-3.66-10.65v-.26h17.81V91c0,3.67,1.75,6.64,5.94,6.64,3.23,0,5.42-1.93,6.9-4.55V71.23c0-5.59-1.31-8-3.75-10.57v-.17h17.9V84.94c0,10.48,1.4,13.1,4.89,16.51v.17l-18.6,4V96l-.26-.08c-2,3.67-6.9,9.78-14.85,9.78S683.56,100.05,683.56,91.41Z"/>
    <path class="cls-19" d="M735.26,104.24c1.57-4.62,2.45-8.29,2.45-16.33v-9c0-7-1.4-10.92-5-14.94v-.17l18.69-5.16v11c4-5.33,8.56-11.79,17-10.57l-2,15.72-.61.09c-2.79-2.62-7.51-4.54-9.78-4.54-1.4,0-2.88,1-4.19,2.53V88c0,7.68.7,11.62,2.27,16.24v.18H735.26Z"/>
    <path class="cls-19" d="M812.55,91.14l.79.53c-2.54,8.38-9.26,14.06-19.48,14.06-13.36,0-21.57-9.7-21.57-22.53,0-14.15,9.6-24.11,22.09-24.11,12.76,0,19.39,10.3,19.13,20.09l-26.72-.09c.69,12.23,6.81,16.24,14.58,16.24C806.79,95.33,810.28,93.41,812.55,91.14ZM786.7,76.3l13.1-.18V72.71c0-7.77-2.18-11.09-5.68-11.09C789.32,61.62,786.7,68.61,786.7,76.3Z"/>
    <path class="cls-19" d="M837.61,104.24c2.79-6.46,3.84-10.13,3.84-19V59.7c0-8.91-1.05-12.58-3.84-19v-.18H861v.18c-2.79,6.46-3.84,10.31-3.84,19V85.29c0,8.65,1.05,12.49,3.84,18.95v.18h-23.4Z"/>
    <path class="cls-19" d="M907,92.19c-2.45,8.12-9.08,13.54-19,13.54-12.49,0-21-8.73-21-22.27,0-14.24,10.39-24.37,25-24.37a36.27,36.27,0,0,1,12.32,2.09L905.47,74l-1.05.27c-5.24-7.6-9.87-12.58-14-12.58-5.06,0-9.25,5.68-9.25,15.9,0,12.83,6.54,17.9,14.32,17.9,4.45,0,8.47-1.48,10.66-3.84Z"/>
    <path class="cls-19" d="M911.49,82.41c0-13.36,11.7-23.32,24.45-23.32,12.93,0,24.54,10,24.54,23.32,0,13.54-11.61,23.32-24.54,23.32S911.49,95.86,911.49,82.41Zm34.06,0c0-12.23-3.06-20.7-9.61-20.7s-9.52,8.47-9.52,20.7c0,12.4,3.15,20.79,9.61,20.79S945.55,94.81,945.55,82.41Z"/>
    <path class="cls-19" d="M966.5,104.24C968.07,99.62,969,96,969,87.91v-9c-.09-7-1.4-10.92-5-14.94v-.17l18.69-5.16v9l.44.09a17.9,17.9,0,0,1,15.37-8.65c8,0,13.45,4.8,13.45,12.58V87.91c0,7.86.7,11.71,2.36,16.33v.18H995.41v-.18c1.57-4.62,2.36-8.56,2.36-16.15V73.15c0-3.76-1.92-6.55-6.29-6.55A10.29,10.29,0,0,0,983.1,71V88c0,7.68.69,11.62,2.27,16.24v.18H966.5Z"/>
    <path class="cls-19" d="M1051.91,71.84l-1,.26c-5.68-7.25-9.35-10.39-14-10.39-3.67,0-6.2,1.92-6.2,5.15,0,4.81,5.59,6.47,11.53,9.09,6.37,2.7,12.75,6.37,12.75,15.46,0,10.3-8.47,14.32-18.78,14.32a42.55,42.55,0,0,1-14.85-2.71l-1.22-12.75,1-.26c5.77,8.38,11,13.19,17.3,13.19,4.71,0,6.37-2.54,6.37-5.42,0-4.63-4.8-6.55-10.48-9-6.38-2.88-13.45-6.2-13.45-15.72,0-10,8.47-14,18.69-14a46.68,46.68,0,0,1,11.27,1.48Z"/>
  </g>
</svg>
