<svg id="Layer_1" data-name="Layer 1" xmlns="http://www.w3.org/2000/svg" width="403.2" height="36.49" viewBox="0 0 403.2 36.49">
  <defs>
    <style>
      .cls-1, .cls-9 {
        fill: #48a2b7;
      }

      .cls-12, .cls-2, .cls-3, .cls-4, .cls-5, .cls-6 {
        fill: none;
      }

      .cls-2 {
        stroke: #000;
      }

      .cls-12, .cls-13, .cls-2, .cls-3, .cls-4, .cls-5, .cls-6, .cls-7, .cls-8, .cls-9 {
        stroke-miterlimit: 10;
      }

      .cls-2, .cls-3, .cls-4, .cls-5, .cls-6 {
        stroke-width: 13px;
      }

      .cls-3 {
        stroke: #23ad3a;
      }

      .cls-4 {
        stroke: #1784c1;
      }

      .cls-5 {
        stroke: #e87b0f;
      }

      .cls-6 {
        stroke: #ce4a90;
      }

      .cls-7 {
        fill: #9ed4d8;
        stroke: #9ed4d8;
      }

      .cls-10, .cls-13, .cls-8 {
        fill: #fffa50;
      }

      .cls-8 {
        stroke: #fffa50;
      }

      .cls-9 {
        stroke: #48a2b7;
      }

      .cls-11 {
        fill: #ffcd52;
      }

      .cls-12, .cls-13 {
        stroke: #ffcd52;
      }

      .cls-14 {
        fill: #322e40;
      }

      .cls-15 {
        fill: #b4a5e6;
      }

      .cls-16 {
        fill: #968abf;
      }

      .cls-17 {
        fill: #645c80;
      }

      .cls-18 {
        fill: #c8b7ff;
      }

      .cls-19 {
        fill: #fff;
      }
    </style>
  </defs>
  <rect class="cls-1" width="403.2" height="36.49"/>
  <g>
    <path id="color1" class="cls-2" d="M93.26,29.85c-1.45-7.29,2.67-14.19,9.2-15.37s13,3.8,14.49,11.1"/>
    <path id="color2" class="cls-3" d="M88.7,30.68c-2-10.11,3.7-19.66,12.74-21.29s18,5.26,20.07,15.37"/>
    <path id="color3" class="cls-4" d="M91,30.26c-1.74-8.7,3.19-16.92,11-18.32s15.54,4.53,17.28,13.23"/>
    <path id="color4" class="cls-5" d="M93.26,29.85c-1.45-7.29,2.67-14.19,9.2-15.37s13,3.8,14.49,11.1"/>
    <path id="color5" class="cls-6" d="M95.55,29.44C94.37,23.54,97.69,18,103,17s10.52,3.06,11.7,9"/>
    <g id="clouds">
      <ellipse class="cls-7" cx="93.21" cy="29.58" rx="7.33" ry="3.28" transform="translate(-3.71 16.55) rotate(-9.95)"/>
      <ellipse class="cls-7" cx="92.74" cy="27.24" rx="3.4" ry="3.5" transform="translate(39.95 108.21) rotate(-73.26)"/>
      <ellipse class="cls-7" cx="95.88" cy="28.08" rx="3.14" ry="2.32" transform="translate(42.82 112.73) rotate(-74.25)"/>
      <ellipse class="cls-7" cx="89.35" cy="29.61" rx="2.29" ry="3.18" transform="translate(-0.27 58.4) rotate(-36.15)"/>
      <ellipse class="cls-7" cx="91.28" cy="30.74" rx="3.14" ry="2.32" transform="translate(36.91 110.25) rotate(-74.25)"/>
      <ellipse class="cls-7" cx="96.03" cy="30.14" rx="2.27" ry="3.22" transform="translate(9.99 82.36) rotate(-48.68)"/>
      <ellipse class="cls-7" cx="93.47" cy="29.77" rx="3.4" ry="3.5" transform="translate(38.04 110.7) rotate(-73.26)"/>
    </g>
    <g id="clouds-2" data-name="clouds">
      <ellipse class="cls-7" cx="116.88" cy="25.24" rx="7.33" ry="3.28" transform="translate(-2.6 20.58) rotate(-9.95)"/>
      <ellipse class="cls-7" cx="116.42" cy="22.9" rx="3.4" ry="3.5" transform="translate(60.96 127.79) rotate(-73.26)"/>
      <ellipse class="cls-7" cx="119.55" cy="23.74" rx="3.14" ry="2.32" transform="matrix(0.27, -0.96, 0.96, 0.27, 64.25, 132.35)"/>
      <ellipse class="cls-7" cx="113.02" cy="25.27" rx="2.29" ry="3.18" transform="translate(6.85 71.53) rotate(-36.15)"/>
      <ellipse class="cls-7" cx="114.95" cy="26.4" rx="3.14" ry="2.32" transform="translate(58.34 129.87) rotate(-74.25)"/>
      <ellipse class="cls-7" cx="119.71" cy="25.8" rx="2.27" ry="3.22" transform="translate(21.29 98.66) rotate(-48.68)"/>
      <ellipse class="cls-7" cx="117.14" cy="25.43" rx="3.4" ry="3.5" transform="translate(59.05 130.28) rotate(-73.26)"/>
    </g>
  </g>
  <ellipse id="moonCircle" class="cls-8" cx="346.82" cy="17.6" rx="15.59" ry="14.8"/>
  <ellipse id="moonCut" class="cls-9" cx="352.12" cy="13.72" rx="14.45" ry="13.72"/>
  <g id="Stars">
    <polygon class="cls-10" points="346.95 2.68 347.97 3.86 349.56 3.73 348.7 5.01 349.31 6.41 347.77 6.03 346.55 7.02 346.46 5.5 345.09 4.71 346.59 4.16 346.95 2.68"/>
    <polygon class="cls-10" points="344.64 7.13 345.66 8.29 347.26 8.15 346.4 9.44 347.04 10.84 345.49 10.47 344.28 11.47 344.18 9.95 342.8 9.18 344.28 8.61 344.64 7.13"/>
    <polygon class="cls-10" points="350.46 6.46 351.55 7.57 353.13 7.36 352.35 8.68 353.05 10.05 351.48 9.75 350.33 10.81 350.15 9.3 348.73 8.59 350.19 7.95 350.46 6.46"/>
  </g>
  <g id="sunrays">
    <path class="cls-11" d="M66.55,19.32c-4.63,1.48-4.94,2.89-1.25,5.89-4.84-.43-5.67.73-3.41,4.81-4.3-2.14-5.52-1.35-5.07,3.24-3.15-3.51-4.64-3.21-6.2,1.19-1.56-4.4-3-4.7-6.2-1.19.45-4.59-.77-5.38-5.06-3.24,2.25-4.08,1.42-5.24-3.42-4.81,3.7-3,3.38-4.41-1.25-5.89,4.63-1.48,5-2.89,1.25-5.89,4.84.43,5.67-.73,3.42-4.81,4.29,2.14,5.51,1.35,5.06-3.24,3.15,3.51,4.64,3.21,6.2-1.19,1.56,4.4,3.05,4.7,6.2,1.19-.45,4.59.77,5.38,5.07,3.24-2.26,4.08-1.43,5.24,3.41,4.81C61.61,16.43,61.92,17.84,66.55,19.32Z"/>
    <path class="cls-12" d="M66.55,19.32c-4.63,1.48-4.94,2.89-1.25,5.89-4.84-.43-5.67.73-3.41,4.81-4.3-2.14-5.52-1.35-5.07,3.24-3.15-3.51-4.64-3.21-6.2,1.19-1.56-4.4-3-4.7-6.2-1.19.45-4.59-.77-5.38-5.06-3.24,2.25-4.08,1.42-5.24-3.42-4.81,3.7-3,3.38-4.41-1.25-5.89,4.63-1.48,5-2.89,1.25-5.89,4.84.43,5.67-.73,3.42-4.81,4.29,2.14,5.51,1.35,5.06-3.24,3.15,3.51,4.64,3.21,6.2-1.19,1.56,4.4,3.05,4.7,6.2,1.19-.45,4.59.77,5.38,5.07,3.24-2.26,4.08-1.43,5.24,3.41,4.81C61.61,16.43,61.92,17.84,66.55,19.32Z"/>
  </g>
  <ellipse id="suncircle" class="cls-13" cx="50.65" cy="19.2" rx="11.2" ry="10.64"/>
  <g id="fins">
    <ellipse class="cls-14" cx="292.36" cy="15.41" rx="3.95" ry="3.4"/>
    <ellipse class="cls-14" cx="297.24" cy="15.45" rx="3.18" ry="3.36"/>
    <ellipse class="cls-14" cx="292" cy="26.58" rx="3.95" ry="3.4"/>
    <ellipse class="cls-14" cx="296.87" cy="26.63" rx="3.18" ry="3.36"/>
  </g>
  <path id="front" class="cls-15" d="M310.12,21.94a28.65,28.65,0,0,1-6.54,4,19.8,19.8,0,0,1-7.92,1.78c-.91,0-1.8,0-2.67-.1-5.78-.43-10.48-2.25-12.22-4.64a3.54,3.54,0,0,1-.7-1.66h0a2.56,2.56,0,0,1,0-.39,3.14,3.14,0,0,1,.14-.91,4.12,4.12,0,0,1,.23-.58l.06-.1a6,6,0,0,1,1.82-1.92c2.29-1.66,6.16-2.85,10.7-3.19.87-.06,1.76-.1,2.67-.1a19.8,19.8,0,0,1,7.92,1.78,29.38,29.38,0,0,1,6.54,4A1.29,1.29,0,0,1,310.12,21.94Z"/>
  <path id="back" class="cls-16" d="M295,20.93a12.38,12.38,0,0,1-2,6.7c-5.78-.43-10.48-2.25-12.22-4.64a9.72,9.72,0,0,1-2.6,1.36,5.75,5.75,0,0,1-.84.22c-3.51.7-7-1.49-7-1.49s2.23-3.34,5.74-4l.48-.08a3.31,3.31,0,0,1-.47-.29c-2.92-2-3.94-6.14-3.56-5.88s3.5-.55,6.27.84a8,8,0,0,1,.74.44,8.2,8.2,0,0,1,2.73,3.35c2.29-1.66,6.16-2.85,10.7-3.19A12.38,12.38,0,0,1,295,20.93Z"/>
  <path id="tail" class="cls-17" d="M280.5,18.64c0,.23,0,.47,0,.7v.12a5.22,5.22,0,0,1-.07.57,7.6,7.6,0,0,1-.32,1.29,7.46,7.46,0,0,1-1.9,3,5.75,5.75,0,0,1-.84.22c-3.51.7-7-1.49-7-1.49s2.23-3.34,5.74-4l.48-.08a3.31,3.31,0,0,1-.47-.29c-2.92-2-3.94-6.14-3.56-5.88s3.5-.55,6.27.84A8.1,8.1,0,0,1,280.5,18.64Z"/>
  <path id="nose" class="cls-18" d="M310.12,21.94a28.65,28.65,0,0,1-6.54,4,8.26,8.26,0,0,1,0-10,29.38,29.38,0,0,1,6.54,4A1.29,1.29,0,0,1,310.12,21.94Z"/>
  <ellipse id="eye" class="cls-14" cx="307.71" cy="20.11" rx="0.89" ry="0.85"/>
  <g id="NatureIcons">
    <path class="cls-19" d="M136.28,13.24l.09,8a6.92,6.92,0,0,0,1.8,4.9v.05h-4.46v-.05a6.78,6.78,0,0,0,1.78-4.93V14.36a5.23,5.23,0,0,0-1.74-4.25v0h5.06l8.12,10.12,0-5.12a7.06,7.06,0,0,0-1.76-5v0h4.38v0A7.09,7.09,0,0,0,147.79,15V26.16l-1,.08Z"/>
    <path class="cls-19" d="M150.38,24.15c0-2.53,3.17-3.69,5.79-4.24v-1c0-1.35-.57-2-2.18-2a7.55,7.55,0,0,0-3,.64l-.18-.27a7,7,0,0,1,5.35-2.57c2.44,0,3.56,1.25,3.56,3.12v5.48c0,.62.25,1.1,1,1.1a1.57,1.57,0,0,0,1-.37l.16.15a3.31,3.31,0,0,1-3.13,2.25,2.29,2.29,0,0,1-2.48-1.79A4,4,0,0,1,153,26.51,2.32,2.32,0,0,1,150.38,24.15Zm4.64.31a2.12,2.12,0,0,0,1.15-.33V20.57c-1.7.5-2.66,1.38-2.66,2.46A1.37,1.37,0,0,0,155,24.46Z"/>
    <path class="cls-19" d="M166.75,26.51a2.81,2.81,0,0,1-3.12-3.15V15.92h-1.28v-.46l4.6-3h.24v2.64h2.86v.81h-2.86v7.2c0,1.25.68,1.67,1.58,1.67a2.5,2.5,0,0,0,1.41-.39l.18.15A4,4,0,0,1,166.75,26.51Z"/>
    <path class="cls-19" d="M172.21,22.9v-5a3.48,3.48,0,0,0-.93-2.68v-.07h4.49v7.68c0,.92.44,1.67,1.5,1.67A2,2,0,0,0,179,23.32v-5.5a3.31,3.31,0,0,0-.94-2.67v0h4.51v6.16c0,2.64.35,3.3,1.23,4.16v0l-4.69,1V24.06l-.06,0a4.44,4.44,0,0,1-3.74,2.47C173.33,26.51,172.21,25.08,172.21,22.9Z"/>
    <path class="cls-19" d="M185.23,26.13a10.87,10.87,0,0,0,.62-4.11V19.75A5,5,0,0,0,184.59,16v0l4.71-1.3v2.77c1-1.34,2.16-3,4.29-2.66l-.51,4-.15,0a4.55,4.55,0,0,0-2.46-1.14,1.57,1.57,0,0,0-1.06.63V22a11.41,11.41,0,0,0,.57,4.09v.05h-4.75Z"/>
    <path class="cls-19" d="M204.7,22.83l.2.13A4.82,4.82,0,0,1,200,26.51c-3.37,0-5.43-2.45-5.43-5.68,0-3.56,2.42-6.07,5.56-6.07a4.74,4.74,0,0,1,4.82,5.06l-6.73,0c.17,3.08,1.72,4.09,3.67,4.09A3.8,3.8,0,0,0,204.7,22.83Zm-6.51-3.74,3.3,0v-.86c0-2-.55-2.79-1.43-2.79C198.85,15.4,198.19,17.16,198.19,19.09Z"/>
    <path class="cls-19" d="M211,26.13a9.85,9.85,0,0,0,1-4.79V14.91a9.89,9.89,0,0,0-1-4.8v0h5.9v0a10,10,0,0,0-1,4.78v6.47a9.92,9.92,0,0,0,1,4.77v.05H211Z"/>
    <path class="cls-19" d="M228.48,23.1a4.7,4.7,0,0,1-4.8,3.41c-3.14,0-5.3-2.2-5.3-5.61a6,6,0,0,1,6.29-6.14,9.11,9.11,0,0,1,3.11.53l.33,3.23-.27.07c-1.32-1.92-2.48-3.17-3.52-3.17-1.27,0-2.33,1.43-2.33,4,0,3.24,1.65,4.51,3.61,4.51a3.69,3.69,0,0,0,2.68-1Z"/>
    <path class="cls-19" d="M229.62,20.63a6.18,6.18,0,0,1,12.35,0,6.18,6.18,0,0,1-12.35,0Zm8.58,0c0-3.08-.77-5.21-2.42-5.21s-2.39,2.13-2.39,5.21.79,5.24,2.42,5.24S238.2,23.76,238.2,20.63Z"/>
    <path class="cls-19" d="M243.48,26.13A10.87,10.87,0,0,0,244.1,22V19.75A5.05,5.05,0,0,0,242.85,16v0l4.7-1.3v2.26l.11,0a4.52,4.52,0,0,1,3.88-2.18,3.07,3.07,0,0,1,3.38,3.17V22a10.67,10.67,0,0,0,.6,4.11v.05h-4.75v-.05a11.3,11.3,0,0,0,.59-4.07V18.3a1.47,1.47,0,0,0-1.58-1.65,2.61,2.61,0,0,0-2.12,1.1V22a11.16,11.16,0,0,0,.58,4.09v.05h-4.76Z"/>
    <path class="cls-19" d="M265,18l-.26.07c-1.43-1.83-2.36-2.62-3.52-2.62-.93,0-1.57.48-1.57,1.3,0,1.21,1.41,1.62,2.91,2.28s3.21,1.61,3.21,3.9c0,2.6-2.13,3.61-4.73,3.61a10.84,10.84,0,0,1-3.74-.68L257,22.61l.24-.06c1.46,2.11,2.78,3.32,4.36,3.32,1.19,0,1.61-.64,1.61-1.37,0-1.16-1.21-1.65-2.64-2.26-1.61-.73-3.39-1.56-3.39-4s2.13-3.52,4.71-3.52a11.5,11.5,0,0,1,2.83.37Z"/>
  </g>
</svg>
