<svg id="butterfly" data-name="Layer 1" xmlns="http://www.w3.org/2000/svg" width="500" height="500" viewBox="0 0 173.13 153.69">
  <defs>
    <style>
    #butterfly:hover{cursor:pointer;}
    #butterfly:hover .cls-1{
      fill: #5bfcfc;
    }
      #butterfly:hover{
      transform: rotate(-2.5deg);
      transform-origin: center;
      transition: all 1s ease;
    }


      .cls-1 {
        fill: #d3679d;
        transition: all 1.5s ease;
      }

      .cls-2 {
        fill: #cc8723;
      }

      .cls-2, .cls-3 {
        stroke: #cc8723;
        stroke-miterlimit: 10;
      }

      .cls-3 {
        fill: none;
        stroke-width: 0.75px;
      }
    </style>
  </defs>
  <g id="wings">
    <rect id="wing4" class="cls-1" x="13.7" y="0.71" width="61.79" height="91.18" rx="22.87" transform="translate(-17.95 31.44) rotate(-32.71)"/>
    <rect id="wing3" class="cls-1" x="11.48" y="58.01" width="61.79" height="91.18" rx="22.87" transform="translate(66.45 -5.71) rotate(34.67)"/>
    <rect id="wing2" class="cls-1" x="98.02" y="2.23" width="61.79" height="91.18" rx="22.87" transform="translate(210.95 158.18) rotate(-146.98)"/>
    <rect id="wing1" class="cls-1" x="99.93" y="59.54" width="61.79" height="91.18" rx="22.87" transform="translate(298.16 118.08) rotate(145.64)"/>
  </g>
  <ellipse id="body" class="cls-2" cx="86.62" cy="81.86" rx="10.49" ry="71.33"/>
  <g id="antenna">
    <path class="cls-3" d="M83.07,14.16a4.18,4.18,0,0,1-4.81-3.43A3.34,3.34,0,0,1,81,6.87a2.69,2.69,0,0,1,3.09,2.2,2.16,2.16,0,0,1-1.76,2.47,1.73,1.73,0,0,1-2-1.41"/>
    <path class="cls-3" d="M90.3,13.94A4.19,4.19,0,0,0,94.73,10a3.35,3.35,0,0,0-3.14-3.54A2.68,2.68,0,0,0,88.75,9a2.14,2.14,0,0,0,2,2.26,1.71,1.71,0,0,0,1.82-1.6"/>
  </g>
</svg>
