<svg id="moon" xmlns="http://www.w3.org/2000/svg" width="174.83" height="163.36" viewBox="0 0 174.83 163.36">
  <defs>
    <style>
      .cls-1, .cls-3 {
        fill: #fffa50;
      }

      .cls-1 {
        stroke: #fffa50;
      }

      .cls-1, .cls-2 {
        stroke-miterlimit: 10;
      }

      .cls-2 {
        fill: #fff;
        stroke: #fff;
      }
    </style>
  </defs>
  <circle id="moonCircle" class="cls-1" cx="76.19" cy="87.17" r="75.69"/>
  <circle id="moonCut" class="cls-2" cx="104.16" cy="70.67" r="70.17"/>
  <g id="Stars">
    <polygon class="cls-3" points="86.24 11.54 90.38 18.12 98.15 18.44 93.17 24.41 95.26 31.9 88.04 29.01 81.57 33.31 82.09 25.56 75.99 20.73 83.53 18.83 86.24 11.54"/>
    <polygon class="cls-3" points="72.26 32.73 76.47 39.27 84.25 39.51 79.33 45.53 81.51 52.99 74.26 50.18 67.83 54.56 68.27 46.8 62.12 42.03 69.64 40.05 72.26 32.73"/>
    <polygon class="cls-3" points="100.75 32.8 105.28 39.12 113.05 38.98 108.44 45.24 110.99 52.58 103.61 50.13 97.41 54.82 97.46 47.05 91.08 42.6 98.49 40.24 100.75 32.8"/>
  </g>
</svg>
