<svg id="rainbow" xmlns="http://www.w3.org/2000/svg" width="550" height="550" viewBox="0 0 181.64 116.37">
  <defs>
    <style>
      #rainbow:hover{cursor:pointer;}
      #rainbow:hover #clouds{
          transform: rotate(-10deg);
          transform-origin: center;
          transition: all 2s ease;
      }
      #rainbow:hover #clouds-2{
          transform: rotate(10deg);
          transform-origin: center;
          transition: all 2s ease;
      }

      .cls-1, .cls-2, .cls-3, .cls-4, .cls-5 {
        fill: none;
        stroke-miterlimit: 10;
        stroke-width: 13px;
      }

      .cls-1 {
        stroke: #000;
      }

      .cls-2 {
        stroke: #23ad3a;
      }

      .cls-3 {
        stroke: #1784c1;
      }

      .cls-4 {
        stroke: #e87b0f;
      }

      .cls-5 {
        stroke: #ce4a90;
      }

      .cls-6 {
        fill: #9ed4d8;
      }
    </style>
      let theRainbow = document.querySelector("#rainbow");

      function logMyId(){
        console.log(this.id);
      }

      theRainbow.addEventListener("click", logmyId);
  </defs>
  <path id="color1" class="cls-1" d="M34.7,98c0-36.4,25.17-66,56.12-66s56.12,29.62,56.12,66"/>
  <path id="color2" class="cls-2" d="M13.08,98C13.08,47.52,48,6.5,90.82,6.5s77.74,41,77.74,91.45"/>
  <path id="color3" class="cls-3" d="M23.89,98c0-43.41,30-78.73,66.93-78.73S157.75,54.54,157.75,98"/>
  <path id="color4" class="cls-4" d="M34.7,98c0-36.4,25.17-66,56.12-66s56.12,29.62,56.12,66"/>
  <path id="color5" class="cls-5" d="M45.51,98c0-29.44,20.29-53.3,45.31-53.3S136.13,68.51,136.13,98"/>
  <g id="clouds">
    <ellipse class="cls-6" cx="34.7" cy="96.59" rx="34.2" ry="16.05"/>
    <ellipse class="cls-6" cx="34.7" cy="84.92" rx="16.21" ry="16.73" transform="translate(-6.47 2.94) rotate(-4.44)"/>
    <ellipse class="cls-6" cx="48.26" cy="91.68" rx="15.36" ry="10.85" transform="translate(-55.15 98.1) rotate(-65.79)"/>
    <ellipse class="cls-6" cx="17.01" cy="93.37" rx="10.85" ry="15.36" transform="translate(-32.59 12.46) rotate(-21.19)"/>
    <ellipse class="cls-6" cx="24.8" cy="100.51" rx="15.36" ry="10.85" transform="translate(-77.04 81.91) rotate(-65.79)"/>
    <ellipse class="cls-6" cx="47.1" cy="101.73" rx="10.85" ry="15.36" transform="translate(-48.35 42.94) rotate(-33.53)"/>
    <ellipse class="cls-6" cx="35.69" cy="97.73" rx="16.21" ry="16.73" transform="translate(-7.46 3.06) rotate(-4.44)"/>
  </g>
  <g id="clouds-2" data-name="clouds">
    <ellipse class="cls-6" cx="146.94" cy="96.24" rx="34.2" ry="16.05"/>
    <ellipse class="cls-6" cx="146.94" cy="84.57" rx="16.21" ry="16.73" transform="translate(-6.11 11.64) rotate(-4.44)"/>
    <ellipse class="cls-6" cx="160.51" cy="91.33" rx="15.36" ry="10.85" transform="translate(11.39 200.27) rotate(-65.79)"/>
    <ellipse class="cls-6" cx="129.25" cy="93.02" rx="10.85" ry="15.36" transform="translate(-24.88 53) rotate(-21.19)"/>
    <ellipse class="cls-6" cx="137.05" cy="100.16" rx="15.36" ry="10.85" transform="translate(-10.5 184.08) rotate(-65.79)"/>
    <ellipse class="cls-6" cx="159.34" cy="101.38" rx="10.85" ry="15.36" transform="translate(-29.49 104.87) rotate(-33.53)"/>
    <ellipse class="cls-6" cx="147.94" cy="97.38" rx="16.21" ry="16.73" transform="translate(-7.1 11.75) rotate(-4.44)"/>
  </g>
</svg>
