<svg id="Star" xmlns="http://www.w3.org/2000/svg" width="550" height="550" viewBox="0 0 173.85 185.74">
  <defs>
    <style>
    #Star:hover{cursor:pointer}
    #Star:hover #Star1{fill:#e5b0ea}
    #Star:hover #Star2{fill:#67cfe8}
    #Star:hover #Star3{fill:#62f462}
      .cls-1 {
        fill: #fffa50;
        transition: all 1s ease;
      }
    </style>
      let theStar = document.querySelector("#star");

      function logMyId(){
        console.log(this.id);
      }

      theStar.addEventListener("click", logmyId);
  </defs>
  <polygon id="Star3" class="cls-1" points="50.25 1.13 65.45 31.92 99.43 36.86 74.84 60.83 80.65 94.67 50.25 78.7 19.86 94.67 25.66 60.83 1.07 36.86 35.06 31.92 50.25 1.13"/>
  <polygon id="Star2" class="cls-1" points="136.1 46.75 147.44 69.71 172.78 73.4 154.44 91.27 158.77 116.5 136.1 104.59 113.44 116.5 117.77 91.27 99.43 73.4 124.77 69.71 136.1 46.75"/>
  <polygon id="Star1" class="cls-1" points="50.83 92.37 65.85 122.8 99.43 127.68 75.13 151.37 80.87 184.82 50.83 169.03 20.79 184.82 26.52 151.37 2.22 127.68 35.81 122.8 50.83 92.37"/>
</svg>
